<svg width="39" height="39" viewBox="0 0 39 39" fill="none" xmlns="http://www.w3.org/2000/svg">
<path d="M14.8586 33.7709V28.7873C14.8585 27.5244 15.8855 26.4984 17.1575 26.4905H21.828C23.1057 26.4905 24.1414 27.5188 24.1414 28.7873V33.7565C24.1414 34.8518 25.0315 35.742 26.1348 35.7499H29.3212C30.8094 35.7538 32.238 35.1695 33.2917 34.1261C34.3453 33.0828 34.9375 31.666 34.9375 30.1885V16.032C34.9375 14.8385 34.4046 13.7064 33.4825 12.9407L22.6573 4.34569C20.7651 2.84232 18.0625 2.89089 16.2263 4.46125L5.63389 12.9407C4.6682 13.6838 4.09102 14.8193 4.0625 16.032V30.174C4.0625 33.2535 6.57699 35.7499 9.67878 35.7499H12.7925C13.3237 35.7538 13.8344 35.547 14.2114 35.1754C14.5884 34.8039 14.8004 34.2983 14.8004 33.7709H14.8586Z" fill="#1D4489"/>
</svg>
