<svg width="43" height="43" viewBox="0 0 43 43" fill="none" xmlns="http://www.w3.org/2000/svg">
<path opacity="0.4" d="M26.4497 12.0811C27.5336 12.0811 28.5747 12.5079 29.3325 13.2686C30.0955 14.0362 30.5179 15.0674 30.5161 16.1406V18.3721C30.5072 18.6337 30.2946 18.8463 30.0278 18.8535H12.9712C12.706 18.8447 12.4922 18.6321 12.4868 18.3721V16.1406C12.4672 13.9182 14.2877 12.1039 16.5522 12.0811H26.4497ZM30.8052 5.37598C34.7414 5.37599 37.9408 8.51324 37.9409 12.373V15.6992C37.9409 16.4371 37.3319 17.0381 36.5776 17.0381C35.8253 17.0379 35.2144 16.437 35.2144 15.6992V12.373C35.2142 9.98904 33.2364 8.04982 30.8052 8.0498H27.9507C27.1983 8.04962 26.5874 7.45166 26.5874 6.71387C26.5876 5.97452 27.1985 5.37616 27.9507 5.37598H30.8052ZM15.0991 5.375C15.8516 5.375 16.4634 5.97421 16.4634 6.71387C16.4633 7.45172 15.8534 8.05078 15.0991 8.05078L12.1812 8.05273C9.75892 8.05625 7.78777 9.99023 7.7876 12.3672V15.6982C7.7876 16.4361 7.17486 17.0371 6.42236 17.0371C5.66994 17.037 5.05908 16.4361 5.05908 15.6982V12.3672C5.05925 8.51618 8.25376 5.38047 12.1792 5.37695L15.0981 5.375H15.0991Z" fill="#86A3B3"/>
<path d="M39.8447 21.5739H3.15675C2.40425 21.5739 1.7915 22.173 1.7915 22.9126C1.7915 23.6505 2.40425 24.2479 3.15675 24.2479H5.05771V30.6325C5.05771 34.4836 8.25405 37.6197 12.1796 37.6232L15.0982 37.625C15.8525 37.625 16.4617 37.0259 16.4635 36.2862C16.4635 35.5483 15.8525 34.9492 15.1 34.9492L12.1832 34.9474C9.75905 34.9439 7.78642 33.0096 7.78642 30.6325V24.2479H12.486V26.0241C12.468 28.2466 14.2866 30.0632 16.5513 30.0843H26.4484C28.7149 30.0632 30.5334 28.2466 30.5155 26.0241V24.2479H35.215V30.6254C35.215 33.0113 33.237 34.9492 30.8058 34.9492H27.9516C27.1973 34.9492 26.5864 35.5483 26.5864 36.2862C26.5864 37.0259 27.1973 37.625 27.9516 37.625H30.8058C34.7403 37.625 37.942 34.4871 37.942 30.6254V24.2479H39.8447C40.5972 24.2479 41.2082 23.6505 41.2082 22.9126C41.2082 22.173 40.5972 21.5739 39.8447 21.5739Z" fill="#86A3B3"/>
</svg>
