<svg width="39" height="39" viewBox="0 0 39 39" fill="none" xmlns="http://www.w3.org/2000/svg">
<path d="M19.5196 24.099C16.9123 24.099 14.8032 22.0677 14.8032 19.5165C14.8032 16.9652 16.9123 14.9177 19.5196 14.9177C22.1268 14.9177 24.1861 16.9652 24.1861 19.5165C24.1861 22.0677 22.1268 24.099 19.5196 24.099Z" fill="#86A3B3"/>
<path opacity="0.4" d="M34.499 23.3515C34.1834 22.864 33.7351 22.3765 33.1538 22.0677C32.6888 21.8402 32.3899 21.4665 32.1242 21.0277C31.2772 19.6302 31.7754 17.794 33.187 16.9652C34.8477 16.039 35.3791 13.9752 34.4159 12.3665L33.3033 10.449C32.3567 8.84024 30.2808 8.27149 28.6368 9.21399C27.1754 9.99399 25.2988 9.47399 24.4518 8.09274C24.1861 7.63774 24.0367 7.15024 24.0699 6.66274C24.1197 6.02899 23.9204 5.42774 23.6215 4.94024C23.0071 3.93274 21.8944 3.25024 20.6655 3.25024H18.3239C17.1116 3.28274 15.999 3.93274 15.3845 4.94024C15.069 5.42774 14.8863 6.02899 14.9195 6.66274C14.9528 7.15024 14.8033 7.63774 14.5376 8.09274C13.6906 9.47399 11.8141 9.99399 10.3693 9.21399C8.70859 8.27149 6.64935 8.84024 5.68615 10.449L4.5735 12.3665C3.62691 13.9752 4.15833 16.039 5.8024 16.9652C7.21398 17.794 7.71218 19.6302 6.88184 21.0277C6.59953 21.4665 6.3006 21.8402 5.83561 22.0677C5.27098 22.3765 4.77278 22.864 4.50707 23.3515C3.89262 24.359 3.92583 25.6265 4.54028 26.6827L5.68615 28.6327C6.3006 29.6727 7.44647 30.3227 8.64216 30.3227C9.20679 30.3227 9.87107 30.1602 10.4025 29.8352C10.8177 29.559 11.3159 29.4615 11.8639 29.4615C13.508 29.4615 14.8863 30.8102 14.9195 32.419C14.9195 34.2877 16.4474 35.7502 18.3738 35.7502H20.6323C22.5421 35.7502 24.0699 34.2877 24.0699 32.419C24.1197 30.8102 25.4981 29.4615 27.1421 29.4615C27.6736 29.4615 28.1718 29.559 28.6035 29.8352C29.135 30.1602 29.7826 30.3227 30.3639 30.3227C31.543 30.3227 32.6888 29.6727 33.3033 28.6327L34.4657 26.6827C35.0636 25.594 35.1134 24.359 34.499 23.3515Z" fill="#86A3B3"/>
</svg>
